<?xml version="1.0" encoding="UTF-8"?>
<svg version="1.1" xmlns="http://www.w3.org/2000/svg" width="500" height="294">
<path d="M0 0 C4.12508935 1.93208024 7.98060616 4.26811332 11.875 6.625 C13.60702673 7.64949947 15.33906664 8.67397748 17.07189941 9.69711304 C18.86446025 10.75763059 20.6535551 11.82382513 22.44238281 12.890625 C28.00709875 16.20070751 33.63341156 19.40407481 39.25 22.625 C47.65999569 27.47562332 56.06080904 32.34206481 64.4375 37.25 C65.36143555 37.78705566 66.28537109 38.32411133 67.23730469 38.87744141 C68.08583008 39.37679199 68.93435547 39.87614258 69.80859375 40.390625 C70.54907959 40.82407227 71.28956543 41.25751953 72.05249023 41.70410156 C75.63934145 44.09083921 75.63934145 44.09083921 77 46 C76.95776367 48.47558594 76.95776367 48.47558594 76 51 C74.13012695 52.78222656 74.13012695 52.78222656 71.67578125 54.390625 C70.77037598 54.98552734 69.8649707 55.58042969 68.93212891 56.19335938 C64.08809807 59.1780245 59.16611196 61.99670126 54.1875 64.75 C52.18071168 65.86929355 50.17419167 66.98906834 48.16796875 68.109375 C47.29422607 68.59374023 46.4204834 69.07810547 45.52026367 69.57714844 C44.68857666 70.04668945 43.85688965 70.51623047 43 71 C42.08081787 71.43562256 41.16163574 71.87124512 40.21459961 72.32006836 C37.74607255 73.82093986 37.74607255 73.82093986 37.38818359 76.63208008 C37.39325928 78.18511841 37.39325928 78.18511841 37.3984375 79.76953125 C37.38296875 80.90583984 37.3675 82.04214844 37.3515625 83.21289062 C37.36316406 84.99469727 37.36316406 84.99469727 37.375 86.8125 C37.375 89.15237998 37.36239008 91.4923008 37.3359375 93.83203125 C37.34157715 94.87077393 37.3472168 95.9095166 37.35302734 96.97973633 C36.92458609 100.64519054 35.99949127 102.8963677 34 106 C31.41552734 107.97875977 31.41552734 107.97875977 28.3359375 109.69140625 C27.21316406 110.32626953 26.09039062 110.96113281 24.93359375 111.61523438 C23.74760474 112.26470455 22.56140552 112.91379099 21.375 113.5625 C20.21140351 114.2140038 19.04863439 114.86698759 17.88671875 115.52148438 C15.63030632 116.78605303 13.3670592 118.03851456 11.09667969 119.27783203 C9.19737867 120.33409736 7.31699025 121.42651807 5.47363281 122.57763672 C1.19621938 125.21825635 -2.39812227 126.93173441 -7.50439453 126.61376953 C-13.1626603 125.22217492 -18.01143669 121.94645404 -22.9375 118.9375 C-24.05318359 118.28072266 -25.16886719 117.62394531 -26.31835938 116.94726562 C-45.11458225 105.7708355 -45.11458225 105.7708355 -47 102 C-46.9393793 100.0085456 -46.82448854 98.01863878 -46.68359375 96.03125 C-45.5710309 83.29264408 -45.5710309 83.29264408 -49.69677734 71.765625 C-53.91159562 68.3914487 -58.6643188 66.5084161 -63.75097656 64.81640625 C-67.0979734 63.60143041 -69.9673456 61.85374049 -73 60 C-73 58.02 -73 56.04 -73 54 C-66.54536832 49.90379143 -66.54536832 49.90379143 -64.09570312 50.3359375 C-60.72426075 51.4042417 -57.78261237 53.2780665 -54.75 55.0625 C-54.1003125 55.43955078 -53.450625 55.81660156 -52.78125 56.20507812 C-51.18494909 57.13234115 -49.59212471 58.06558456 -48 59 C-47.60039062 58.00226563 -47.20078125 57.00453125 -46.7890625 55.9765625 C-43.42298156 50.10439144 -37.12267634 47.51212088 -31.375 44.375 C-30.23675781 43.73304687 -29.09851563 43.09109375 -27.92578125 42.4296875 C-7.79459424 31.15067572 -7.79459424 31.15067572 -1 32 C-0.34 32.33 0.32 32.66 1 33 C1.13487595 30.22754986 1.23400807 27.46162912 1.3125 24.6875 C1.35439453 23.90181641 1.39628906 23.11613281 1.43945312 22.30664062 C1.48629528 20.10505948 1.45362952 18.15545171 1 16 C-1.00518793 13.6217956 -1.00518793 13.6217956 -4 13 C-8.17832157 14.12066256 -11.7065654 15.80896344 -15.4296875 17.984375 C-16.46053467 18.5829834 -17.49138184 19.1815918 -18.5534668 19.79833984 C-19.64957275 20.4423877 -20.74567871 21.08643555 -21.875 21.75 C-23.02942068 22.42317452 -24.1841291 23.09585581 -25.33911133 23.76806641 C-27.71923276 25.15452215 -30.09743981 26.54417907 -32.47412109 27.93652344 C-36.85645135 30.5031902 -41.24875712 33.05260355 -45.64282227 35.59912109 C-47.66121914 36.77639789 -49.67355232 37.96413709 -51.67944336 39.16259766 C-55.97932284 41.7259386 -60.20690131 44.16496991 -64.796875 46.171875 C-68.9390624 48.06857566 -71.90780683 49.57313348 -75 53 C-76.9561232 59.47558283 -76.57606795 66.33049873 -76 73 C-75.01 73.33 -74.02 73.66 -73 74 C-71.875 78.75 -71.875 78.75 -73 81 C-73.15175549 82.59262066 -73.24900325 84.19064856 -73.31640625 85.7890625 C-73.35830078 86.73007813 -73.40019531 87.67109375 -73.44335938 88.640625 C-73.50233398 90.11789063 -73.50233398 90.11789063 -73.5625 91.625 C-73.60568359 92.61757812 -73.64886719 93.61015625 -73.69335938 94.6328125 C-73.79961069 97.08839838 -73.90164964 99.54408703 -74 102 C-76.64 102 -79.28 102 -82 102 C-82.02505615 101.39003174 -82.0501123 100.78006348 -82.07592773 100.15161133 C-82.1924058 97.37172102 -82.31489632 94.5921266 -82.4375 91.8125 C-82.47681641 90.85279297 -82.51613281 89.89308594 -82.55664062 88.90429688 C-82.59853516 87.97294922 -82.64042969 87.04160156 -82.68359375 86.08203125 C-82.72025146 85.22843018 -82.75690918 84.3748291 -82.79467773 83.49536133 C-82.93765271 80.9554834 -82.93765271 80.9554834 -83.64477539 78.36987305 C-84 76 -84 76 -82 73 C-81.34 73 -80.68 73 -80 73 C-80.0060097 70.07928415 -80.05336262 67.16922336 -80.125 64.25 C-80.12113281 63.0125 -80.12113281 63.0125 -80.1171875 61.75 C-80.19432933 59.35860312 -80.3283044 57.29879129 -81 55 C-83.8925622 52.62665916 -83.8925622 52.62665916 -87 51 C-87.68798828 48.89550781 -87.68798828 48.89550781 -88 47 C-82.20945123 41.6119149 -75.94219264 37.86132745 -69.0625 34 C-67.31927577 33.00852355 -65.57606011 32.01703142 -63.83351135 31.02436829 C-62.64462244 30.34755714 -61.4551964 29.67168865 -60.26524353 28.99674988 C-54.37494183 25.65495259 -48.52998278 22.23710628 -42.6875 18.8125 C-34.85488492 14.23282387 -27.00272997 9.68915703 -19.125 5.1875 C-18.23256592 4.67743408 -17.34013184 4.16736816 -16.4206543 3.6418457 C-6.79229072 -1.84800239 -6.79229072 -1.84800239 0 0 Z M14 23 C14 33.56 14 44.12 14 55 C6.5625 50.4375 6.5625 50.4375 4.27954102 48.98608398 C-0.23228573 46.33926154 -3.55923621 45.4059656 -8.75268555 46.32641602 C-12.76817998 47.52997377 -16.1572622 49.52713871 -19.6875 51.75 C-20.40744141 52.18054688 -21.12738281 52.61109375 -21.86914062 53.0546875 C-29.50241254 57.45514385 -29.50241254 57.45514385 -35 64 C-35.28155398 68.36978912 -35.31364613 72.74321887 -35.35009766 77.12084961 C-35.36664004 78.57674158 -35.39390836 80.0325529 -35.43212891 81.48803711 C-35.48708123 83.59271123 -35.50879616 85.69548507 -35.5234375 87.80078125 C-35.54325684 89.06059814 -35.56307617 90.32041504 -35.58349609 91.6184082 C-34.83355471 95.96461661 -33.39235045 97.25669769 -30 100 C-26.13639768 102.70529266 -22.06511679 105.04839497 -18 107.4375 C-16.91976562 108.09943359 -15.83953125 108.76136719 -14.7265625 109.44335938 C-13.16035156 110.36665039 -13.16035156 110.36665039 -11.5625 111.30859375 C-10.14130859 112.15635376 -10.14130859 112.15635376 -8.69140625 113.02124023 C-6.05426868 114.26719352 -6.05426868 114.26719352 -3.47705078 113.3515625 C-2.65962402 112.90554687 -1.84219727 112.45953125 -1 112 C-0.16194824 111.5469751 0.67610352 111.0939502 1.53955078 110.62719727 C4.40420122 108.94364236 7.2674673 107.25811765 10.125 105.5625 C11.12660156 104.97662109 12.12820313 104.39074219 13.16015625 103.78710938 C14.12050781 103.21927734 15.08085937 102.65144531 16.0703125 102.06640625 C16.94445801 101.55021729 17.81860352 101.03402832 18.71923828 100.50219727 C22.11226605 98.26741886 23.70192875 96.89421375 25 93 C25.08921886 90.92971727 25.11759651 88.85662411 25.11352539 86.78442383 C25.11344986 85.5033223 25.11337433 84.22222076 25.11329651 82.90229797 C25.10818987 81.50387534 25.10297387 80.1054531 25.09765625 78.70703125 C25.09579089 77.27642364 25.09436754 75.84581539 25.09336853 74.41520691 C25.08955267 70.65213249 25.07973032 66.88909675 25.06866455 63.1260376 C25.05843043 59.28520226 25.05386662 55.44436067 25.04882812 51.60351562 C25.03810722 44.06899076 25.02051795 36.53450573 25 29 C21.37 27.02 17.74 25.04 14 23 Z M37 37 C37 44.26 37 51.52 37 59 C41.88159325 57.37280225 45.62767824 55.59443904 49.875 52.875 C50.46796875 52.50246094 51.0609375 52.12992188 51.671875 51.74609375 C53.1181343 50.83635 54.55958046 49.91896202 56 49 C54.86351798 45.59055395 54.46011714 45.39306229 51.47265625 43.73828125 C50.76302734 43.34189453 50.05339844 42.94550781 49.32226562 42.53710938 C48.57654297 42.13298828 47.83082031 41.72886719 47.0625 41.3125 C46.32064453 40.89677734 45.57878906 40.48105469 44.81445312 40.05273438 C41.1164424 37.79839511 41.1164424 37.79839511 37 37 Z " fill="#131313" transform="translate(255,40)"/>
<path d="M0 0 C3.83717042 1.51161259 7.33335481 3.50225598 10.890625 5.578125 C11.63119141 6.00287109 12.37175781 6.42761719 13.13476562 6.86523438 C14.95280618 7.90914153 16.76596248 8.96154692 18.578125 10.015625 C18.66511 13.78631332 18.71851079 17.55674432 18.765625 21.328125 C18.79076172 22.39998047 18.81589844 23.47183594 18.84179688 24.57617188 C18.85146484 25.60419922 18.86113281 26.63222656 18.87109375 27.69140625 C18.8868042 28.63927002 18.90251465 29.58713379 18.91870117 30.5637207 C18.51142669 33.49580505 17.88285428 34.22936847 15.578125 36.015625 C13.20314589 37.75314697 10.70476316 39.28029676 8.203125 40.828125 C7.543125 41.26060547 6.883125 41.69308594 6.203125 42.13867188 C1.30666596 45.15750469 1.30666596 45.15750469 -1.94921875 44.5234375 C-2.76519531 44.02585938 -3.58117187 43.52828125 -4.421875 43.015625 C-6.14470703 42.10490234 -6.14470703 42.10490234 -7.90234375 41.17578125 C-9.1399739 40.4800253 -10.37562171 39.78073267 -11.609375 39.078125 C-12.23779297 38.73072266 -12.86621094 38.38332031 -13.51367188 38.02539062 C-16.65237837 36.24287389 -18.38587105 35.06963093 -20.421875 32.015625 C-20.87522653 28.71834981 -20.79216843 25.4033159 -20.796875 22.078125 C-20.82136719 21.17126953 -20.84585938 20.26441406 -20.87109375 19.33007812 C-20.90025281 12.72555177 -20.90025281 12.72555177 -18.83203125 9.65625 C-15.76644605 7.56946591 -12.69647496 5.55456723 -9.484375 3.703125 C-8.87658203 3.33123047 -8.26878906 2.95933594 -7.64257812 2.57617188 C-5.06008573 1.08016495 -3.01731175 0.01946653 0 0 Z " fill="#0C0C0C" transform="translate(250.421875,96.984375)"/>
<path d="M0 0 C17.3 0 17.3 0 23.3125 4.875 C26.34144006 8.68922081 27.21320214 11.60460363 26.9375 16.4375 C26.25255987 21.32992951 24.55105607 23.61410933 21 27 C17.11057104 29.7647748 12.81454245 29.22265114 8.25 29.125 C4.16625 29.063125 4.16625 29.063125 0 29 C0 19.43 0 9.86 0 0 Z M8 6 C8 11.61 8 17.22 8 23 C13.65286743 23.57494552 13.65286743 23.57494552 16.3125 21.375 C18.39744561 18.44063211 18.92657532 16.5978095 19 13 C17.64398381 9.68529377 16.68085909 8.35745102 13.5 6.6875 C10.95003206 5.86742176 10.95003206 5.86742176 8 6 Z " fill="#272727" transform="translate(58,198)"/>
<path d="M0 0 C3.5578125 -0.0928125 3.5578125 -0.0928125 7.1875 -0.1875 C8.29387817 -0.22846802 8.29387817 -0.22846802 9.42260742 -0.27026367 C13.85121619 -0.32588293 16.47361597 0.33748335 20 3 C22 5 22 5 22.3125 8.875 C22.2447898 11.73966214 22.04049306 12.92637626 20.625 15.5 C19 17 19 17 17 17 C18.98 20.96 20.96 24.92 23 29 C19.7 29 16.4 29 13 29 C11.68 26.69 10.36 24.38 9 22 C8.67 24.31 8.34 26.62 8 29 C5.36 29 2.72 29 0 29 C0 19.43 0 9.86 0 0 Z M8 6 C8 7.98 8 9.96 8 12 C9.65 12 11.3 12 13 12 C13.33 10.35 13.66 8.7 14 7 C11.03 6.505 11.03 6.505 8 6 Z " fill="#242424" transform="translate(333,198)"/>
<path d="M0 0 C2.64 0 5.28 0 8 0 C8.02505615 0.60062256 8.0501123 1.20124512 8.07592773 1.82006836 C8.1915528 4.52611437 8.31442936 7.23178283 8.4375 9.9375 C8.47681641 10.88302734 8.51613281 11.82855469 8.55664062 12.80273438 C8.61948242 14.15141602 8.61948242 14.15141602 8.68359375 15.52734375 C8.72025146 16.35999756 8.75690918 17.19265137 8.79467773 18.05053711 C8.79367103 20.00338858 8.79367103 20.00338858 10 21 C12.5 21.16666667 12.5 21.16666667 15 21 C16.58403524 19.41596476 16.21974935 17.7228362 16.31640625 15.52734375 C16.35830078 14.62822266 16.40019531 13.72910156 16.44335938 12.80273438 C16.48267578 11.85720703 16.52199219 10.91167969 16.5625 9.9375 C16.60568359 8.98810547 16.64886719 8.03871094 16.69335938 7.06054688 C16.79979276 4.70718647 16.90181008 2.35371646 17 0 C19.64 0 22.28 0 25 0 C25.08745946 3.3956697 25.14054444 6.79104773 25.1875 10.1875 C25.21263672 11.14720703 25.23777344 12.10691406 25.26367188 13.09570312 C25.35580782 21.97146613 25.35580782 21.97146613 22 26 C21.54238281 26.58007812 21.08476563 27.16015625 20.61328125 27.7578125 C17.31361189 30.29847801 13.02387729 30.09401582 9 30 C5.15491452 28.81151903 3.59609445 27.88284131 1.3515625 24.55859375 C-0.50441077 19.67191269 -0.32423738 15.29998401 -0.1875 10.125 C-0.17396484 9.15046875 -0.16042969 8.1759375 -0.14648438 7.171875 C-0.11131962 4.78067137 -0.0621067 2.39063025 0 0 Z " fill="#2B2B2B" transform="translate(94,198)"/>
<path d="M0 0 C2.97 0 5.94 0 9 0 C11.89518234 6.61579965 14.52548743 13.2772444 16.8125 20.125 C17.14060669 21.10158569 17.14060669 21.10158569 17.4753418 22.09790039 C19 26.74059199 19 26.74059199 19 29 C16.03 29 13.06 29 10 29 C9.67 28.01 9.34 27.02 9 26 C6.03 26 3.06 26 0 26 C-0.33 26.99 -0.66 27.98 -1 29 C-3.97 29 -6.94 29 -10 29 C-8.73849111 25.19076766 -7.47501857 21.38219296 -6.2097168 17.57421875 C-5.77948756 16.27850006 -5.34979683 14.98260245 -4.9206543 13.68652344 C-4.30398652 11.82440063 -3.68522569 9.96297138 -3.06640625 8.1015625 C-2.69459229 6.98088379 -2.32277832 5.86020508 -1.93969727 4.70556641 C-1 2 -1 2 0 0 Z M4 11 C3.34 13.64 2.68 16.28 2 19 C3.65 19 5.3 19 7 19 C6.34 16.36 5.68 13.72 5 11 C4.67 11 4.34 11 4 11 Z " fill="#232323" transform="translate(305,198)"/>
<path d="M0 0 C3.3 0 6.6 0 10 0 C13.3 9.57 16.6 19.14 20 29 C17.03 29 14.06 29 11 29 C10.67 27.68 10.34 26.36 10 25 C6.7 25 3.4 25 0 25 C-0.33 26.32 -0.66 27.64 -1 29 C-3.64 29 -6.28 29 -9 29 C-7.6393319 22.24476394 -5.71290027 15.91424405 -3.375 9.4375 C-3.05015625 8.52419922 -2.7253125 7.61089844 -2.390625 6.66992188 C-1.59847955 4.4449251 -0.79991232 2.22221632 0 0 Z M5 12 C3.5393715 14.64738916 3 15.89448334 3 19 C4.65 19 6.3 19 8 19 C7.34 16.69 6.68 14.38 6 12 C5.67 12 5.34 12 5 12 Z " fill="#232323" transform="translate(174,198)"/>
<path d="M0 0 C4.03309859 1.4839452 6.58583036 3.37874554 9 7 C9 7.99 9 8.98 9 10 C7.5629191 10.05422947 6.12524538 10.09289723 4.6875 10.125 C3.88699219 10.14820313 3.08648437 10.17140625 2.26171875 10.1953125 C0 10 0 10 -3 8 C-6.08333333 8 -6.08333333 8 -9 9 C-11.13379909 11.50489459 -11.01292855 12.8383931 -10.75 16.125 C-10.23116835 19.10597798 -10.23116835 19.10597798 -8 21 C-5 21.33333333 -5 21.33333333 -2 21 C-1.34 20.34 -0.68 19.68 0 19 C2.1640625 18.8046875 2.1640625 18.8046875 4.625 18.875 C5.85089844 18.90207031 5.85089844 18.90207031 7.1015625 18.9296875 C8.04128906 18.96449219 8.04128906 18.96449219 9 19 C8.7921154 22.63798048 8.0163784 23.98152181 5.5625 26.75 C1.47769336 29.86035879 -2.97873042 30.27031304 -8 30 C-13.17744226 28.33931097 -16.0218383 25.50978772 -19 21 C-20.70601389 15.94475638 -20.09411728 11.60958846 -18.02734375 6.76171875 C-13.93502686 -0.2559045 -7.3155554 -0.80919447 0 0 Z " fill="#2C2C2C" transform="translate(148,198)"/>
<path d="M0 0 C2.63136193 2.46690181 2.76481427 4.34721403 3 7.875 C-5.57142857 8.16071429 -5.57142857 8.16071429 -9 5.875 C-9 6.865 -9 7.855 -9 8.875 C-8.31292969 9.10574219 -7.62585938 9.33648437 -6.91796875 9.57421875 C0.3991077 12.22260264 0.3991077 12.22260264 3.1875 15.25 C4.23093468 18.62109667 4.07221619 20.51538926 3 23.875 C0.72158051 26.68505071 -0.54696453 27.72398818 -4 28.875 C-9.17607648 29.26564728 -12.72788575 28.95489632 -17 25.875 C-18.375 22.1875 -18.375 22.1875 -19 18.875 C-16.03 18.875 -13.06 18.875 -10 18.875 C-9.67 19.535 -9.34 20.195 -9 20.875 C-6.97536745 21.52713292 -6.97536745 21.52713292 -5 21.875 C-5 20.555 -5 19.235 -5 17.875 C-5.68707031 17.69324219 -6.37414062 17.51148438 -7.08203125 17.32421875 C-7.98308594 17.07285156 -8.88414062 16.82148438 -9.8125 16.5625 C-10.70582031 16.31886719 -11.59914063 16.07523438 -12.51953125 15.82421875 C-15.08955673 14.84072868 -16.29793788 14.0039285 -18 11.875 C-19.28279175 8.48476467 -19.09302585 7.12470095 -17.8125 3.6875 C-13.78160784 -2.56733266 -6.48499737 -2.43187401 0 0 Z " fill="#2B2B2B" transform="translate(384,199.125)"/>
<path d="M0 0 C2.64 0 5.28 0 8 0 C9.98 5.94 11.96 11.88 14 18 C16.40681178 12.02446731 18.76262045 6.04092479 21 0 C23.64 0 26.28 0 29 0 C27.67693291 6.59538972 25.81571141 12.71367624 23.4375 19 C23.12103516 19.85722656 22.80457031 20.71445313 22.47851562 21.59765625 C20.14207688 27.85792312 20.14207688 27.85792312 19 29 C17.31391034 29.07205511 15.62499341 29.08386068 13.9375 29.0625 C13.01839844 29.05347656 12.09929687 29.04445312 11.15234375 29.03515625 C10.44207031 29.02355469 9.73179687 29.01195312 9 29 C7.48958243 24.92044428 5.9934855 20.83578164 4.5 16.75 C4.07074219 15.59113281 3.64148438 14.43226563 3.19921875 13.23828125 C2.79316406 12.12324219 2.38710938 11.00820312 1.96875 9.859375 C1.59169922 8.83295898 1.21464844 7.80654297 0.82617188 6.74902344 C0 4 0 4 0 0 Z " fill="#2A2A2A" transform="translate(260,198)"/>
<path d="M0 0 C5.94 0 11.88 0 18 0 C18 1.98 18 3.96 18 6 C14.7 6 11.4 6 8 6 C8 7.65 8 9.3 8 11 C10.97 11 13.94 11 17 11 C17 13.31 17 15.62 17 18 C14.03 18 11.06 18 8 18 C8 19.65 8 21.3 8 23 C11.3 23 14.6 23 18 23 C18 24.98 18 26.96 18 29 C12.06 29 6.12 29 0 29 C0 19.43 0 9.86 0 0 Z " fill="#292929" transform="translate(29,198)"/>
<path d="M0 0 C5.94 0 11.88 0 18 0 C18 1.98 18 3.96 18 6 C14.7 6 11.4 6 8 6 C8 7.65 8 9.3 8 11 C9.299375 10.979375 10.59875 10.95875 11.9375 10.9375 C13.29165633 10.91600546 14.64756083 10.92851801 16 11 C17 12 17 12 17.0625 15.0625 C17.041875 16.031875 17.02125 17.00125 17 18 C14.03 18 11.06 18 8 18 C8 19.65 8 21.3 8 23 C11.3 23 14.6 23 18 23 C18 24.98 18 26.96 18 29 C12.06 29 6.12 29 0 29 C0 19.43 0 9.86 0 0 Z " fill="#282828" transform="translate(233,198)"/>
<path d="M0 0 C2.97 0 5.94 0 9 0 C10.65 3.3 12.3 6.6 14 10 C15.65 6.7 17.3 3.4 19 0 C21.64 0 24.28 0 27 0 C26.39652099 4.46742101 24.64997213 7.75322722 22.5 11.6875 C19.46901979 17.42761329 17.89475916 22.47506763 18 29 C15.36 29 12.72 29 10 29 C9.92910156 27.70964844 9.85820312 26.41929687 9.78515625 25.08984375 C9.17417693 19.58887471 7.05447304 15.37564644 4.4375 10.5625 C3.59965586 8.98216575 2.76485798 7.40021146 1.93359375 5.81640625 C1.56290771 5.13006104 1.19222168 4.44371582 0.81030273 3.73657227 C0 2 0 2 0 0 Z " fill="#2F2F2F" transform="translate(446,198)"/>
<path d="M0 0 C7.92 0 15.84 0 24 0 C24 1.98 24 3.96 24 6 C21.36 6 18.72 6 16 6 C16 13.59 16 21.18 16 29 C13.36 29 10.72 29 8 29 C8 21.41 8 13.82 8 6 C5.36 6 2.72 6 0 6 C0 4.02 0 2.04 0 0 Z " fill="#292929" transform="translate(200,198)"/>
<path d="M0 0 C7.59 0 15.18 0 23 0 C23 1.98 23 3.96 23 6 C20.36 6 17.72 6 15 6 C15 13.59 15 21.18 15 29 C12.36 29 9.72 29 7 29 C7 21.41 7 13.82 7 6 C4.69 6 2.38 6 0 6 C0 4.02 0 2.04 0 0 Z " fill="#262626" transform="translate(416,198)"/>
<path d="M0 0 C2.31 0 4.62 0 7 0 C7 9.57 7 19.14 7 29 C4.69 29 2.38 29 0 29 C0 19.43 0 9.86 0 0 Z " fill="#0B0B0B" transform="translate(399,198)"/>
</svg>
